<?xml version="1.0" encoding="UTF-8"?>
<svg version="1.1" xmlns="http://www.w3.org/2000/svg" width="402" height="85">
<path d="M0 0 C132.66 0 265.32 0 402 0 C402 28.05 402 56.1 402 85 C269.34 85 136.68 85 0 85 C0 56.95 0 28.9 0 0 Z " fill="#e7f5bf" transform="translate(0,0)"/>
<path d="M0 0 C6.84708993 6.54939037 8.72109473 14.66861847 9.203125 23.8828125 C9.40213786 34.75580375 9.41860366 46.27223099 2 55 C-5.2556673 62.2556673 -16.03395996 63.0973612 -25.81323242 63.19042969 C-50.3990673 63.16087052 -50.3990673 63.16087052 -59.8125 54.375 C-66.39071008 45.62620209 -66.68932391 32.45265714 -66 22 C-64.90288075 14.5188561 -63.48484702 6.56395539 -58 1 C-43.39007568 -9.47402662 -15.09396494 -9.59950908 0 0 Z " fill="#000000" transform="translate(78,15)"/>
<path d="M0 0 C1.010625 0.0825 2.02125 0.165 3.0625 0.25 C5.41020643 3.77155964 5.43919614 5.75771843 5.6875 9.9375 C5.76226562 11.11699219 5.83703125 12.29648437 5.9140625 13.51171875 C5.96304687 14.41535156 6.01203125 15.31898437 6.0625 16.25 C6.7225 15.92 7.3825 15.59 8.0625 15.25 C8.50582642 12.93195337 8.8439034 10.59325909 9.125 8.25 C9.96720723 1.34529277 9.96720723 1.34529277 11.0625 0.25 C14 0.0625 14 0.0625 17.0625 0.25 C20.33558197 3.52308197 19.95224142 7.91369571 20.5 12.37890625 C20.685625 13.32636719 20.87125 14.27382813 21.0625 15.25 C21.7225 15.58 22.3825 15.91 23.0625 16.25 C23.11148437 15.26257812 23.16046875 14.27515625 23.2109375 13.2578125 C23.28570312 11.97648437 23.36046875 10.69515625 23.4375 9.375 C23.50710938 8.09882813 23.57671875 6.82265625 23.6484375 5.5078125 C24.0625 2.25 24.0625 2.25 26.0625 0.25 C29.125 0.0625 29.125 0.0625 32.0625 0.25 C32.5575 0.745 32.5575 0.745 33.0625 1.25 C32.99664936 2.89925924 32.8578925 4.54574522 32.6875 6.1875 C32.59082031 7.17621094 32.49414062 8.16492188 32.39453125 9.18359375 C32.18085132 11.15699078 31.9504048 13.12868176 31.69921875 15.09765625 C31.59222656 15.97292969 31.48523438 16.84820312 31.375 17.75 C31.26800781 18.5440625 31.16101563 19.338125 31.05078125 20.15625 C30.87229305 22.56056037 30.87229305 22.56056037 33.0625 25.25 C32.0725 25.91 31.0825 26.57 30.0625 27.25 C29.28070526 29.45585604 29.28070526 29.45585604 28.89453125 32.0390625 C28.63833008 33.45058594 28.63833008 33.45058594 28.37695312 34.890625 C28.21130859 35.87546875 28.04566406 36.8603125 27.875 37.875 C27.69775391 38.86757813 27.52050781 39.86015625 27.33789062 40.8828125 C26.90136903 43.33677176 26.47677441 45.79220391 26.0625 48.25 C23.4225 48.25 20.7825 48.25 18.0625 48.25 C17.0725 42.97 16.0825 37.69 15.0625 32.25 C14.7325 32.25 14.4025 32.25 14.0625 32.25 C13.92972656 33.32121094 13.79695313 34.39242187 13.66015625 35.49609375 C13.4819944 36.89325769 13.30359681 38.29039159 13.125 39.6875 C13.03798828 40.39455078 12.95097656 41.10160156 12.86132812 41.83007812 C12.17578125 47.13671875 12.17578125 47.13671875 11.0625 48.25 C8.72952567 48.29092937 6.39544775 48.29241723 4.0625 48.25 C2.13522259 42.96989702 1.43610414 37.93287142 0.8203125 32.37109375 C-0.04837401 28.79335911 -1.46802489 26.93442942 -3.9375 24.25 C-3.2775 23.59 -2.6175 22.93 -1.9375 22.25 C-2.12065271 19.58837751 -2.40533211 17.06537091 -2.8125 14.4375 C-4.18517982 5.07446787 -4.18517982 5.07446787 -3.9375 1.25 C-2.9375 0.25 -2.9375 0.25 0 0 Z " fill="#020202" transform="translate(267.9375,19.75)"/>
<path d="M0 0 C5.85250909 0.04167606 9.14505805 0.14505805 13.3125 4.3125 C15.70199388 7.90117837 15.65077689 11.53521528 15.68359375 15.7109375 C15.69713646 16.77980698 15.69713646 16.77980698 15.71095276 17.87026978 C15.72542845 19.37473365 15.73433534 20.8792601 15.73803711 22.38378906 C15.7499279 24.67361653 15.79912551 26.96074133 15.84960938 29.25 C15.8590756 30.71613276 15.86630969 32.18228198 15.87109375 33.6484375 C15.89062607 34.32675629 15.91015839 35.00507507 15.93028259 35.70394897 C15.87795127 41.27760291 14.10163079 43.53301259 10.3125 47.3125 C7.12425432 48.90662284 3.68353338 48.41424735 0.1875 48.375 C-0.56660156 48.37048828 -1.32070312 48.36597656 -2.09765625 48.36132812 C-3.96097127 48.34953499 -5.82424555 48.33159942 -7.6875 48.3125 C-7.71276945 41.6372966 -7.73033268 34.96210543 -7.74243164 28.28686523 C-7.74747325 26.01407409 -7.75430637 23.7412862 -7.76293945 21.46850586 C-7.77501261 18.20946449 -7.78072987 14.95046583 -7.78515625 11.69140625 C-7.79031754 10.66849991 -7.79547882 9.64559357 -7.80079651 8.59169006 C-7.80087204 7.65079025 -7.80094757 6.70989044 -7.80102539 5.74047852 C-7.803246 4.90774918 -7.80546661 4.07501984 -7.80775452 3.21705627 C-7.53243006 -1.14345293 -3.54345842 0.07035079 0 0 Z " fill="#010101" transform="translate(242.6875,19.6875)"/>
<path d="M0 0 C4.15639046 2.33796963 5.56229739 4.54905178 7 9 C7.42124533 13.78310027 7.32431047 18.57522688 7.3125 23.375 C7.32861328 24.67695312 7.34472656 25.97890625 7.36132812 27.3203125 C7.36850699 41.39088537 7.36850699 41.39088537 2.25 46.875 C-0.92164439 48.4608222 -3.45475029 48.87775001 -7 49 C-11.18457623 47.47102022 -13.71678501 45.84541472 -16 42 C-17.69146061 36.92561817 -17.22526129 31.59946314 -17.24023438 26.28588867 C-17.24991783 24.20515627 -17.28094366 22.12542168 -17.3125 20.04492188 C-17.31903307 18.71094333 -17.32428235 17.37695776 -17.328125 16.04296875 C-17.3374707 14.83664795 -17.34681641 13.63032715 -17.35644531 12.38745117 C-16.87283253 7.79147353 -15.42850077 4.40474192 -12.12109375 1.15234375 C-8.25243987 -0.94941112 -4.26841344 -0.62262109 0 0 Z " fill="#050505" transform="translate(160,20)"/>
<path d="M0 0 C2.05078125 0.03255208 4.1015625 0.06510417 6.15234375 0.09765625 C9.02650241 7.2830529 11.09085598 14.64699993 13.15234375 22.09765625 C13.48234375 22.09765625 13.81234375 22.09765625 14.15234375 22.09765625 C14.1773999 21.46674072 14.20245605 20.8358252 14.22827148 20.18579102 C14.34388512 17.343688 14.46676691 14.50194542 14.58984375 11.66015625 C14.62916016 10.66693359 14.66847656 9.67371094 14.70898438 8.65039062 C14.75087891 7.70615234 14.79277344 6.76191406 14.8359375 5.7890625 C14.87259521 4.91451416 14.90925293 4.03996582 14.94702148 3.13891602 C15.15234375 1.09765625 15.15234375 1.09765625 16.15234375 0.09765625 C19.15234375 -0.02734375 19.15234375 -0.02734375 22.15234375 0.09765625 C23.72534703 1.67065953 23.27959879 3.2344967 23.28173828 5.41796875 C23.28489044 6.33562012 23.2880426 7.25327148 23.29129028 8.19873047 C23.28926605 9.19662598 23.28724182 10.19452148 23.28515625 11.22265625 C23.28659134 12.74850342 23.28659134 12.74850342 23.28805542 14.30517578 C23.28873736 16.46061261 23.2868821 18.61605147 23.28271484 20.77148438 C23.2773668 24.08337996 23.28265938 27.39513992 23.2890625 30.70703125 C23.28840172 32.79557322 23.28712056 34.8841151 23.28515625 36.97265625 C23.28718048 37.97055176 23.28920471 38.96844727 23.29129028 39.99658203 C23.28813812 40.9142334 23.28498596 41.83188477 23.28173828 42.77734375 C23.28094269 43.58929199 23.28014709 44.40124023 23.27932739 45.23779297 C23.15234375 47.09765625 23.15234375 47.09765625 22.15234375 48.09765625 C19.48175524 48.23880786 16.82802137 48.14012732 14.15234375 48.09765625 C13.84997803 47.15128296 13.84997803 47.15128296 13.54150391 46.18579102 C12.6279012 43.34134331 11.70279278 40.50077063 10.77734375 37.66015625 C10.46023437 36.66693359 10.143125 35.67371094 9.81640625 34.65039062 C9.50703125 33.70615234 9.19765625 32.76191406 8.87890625 31.7890625 C8.59611816 30.91451416 8.31333008 30.03996582 8.02197266 29.13891602 C7.33703303 26.92017416 7.33703303 26.92017416 5.15234375 26.09765625 C5.15234375 33.35765625 5.15234375 40.61765625 5.15234375 48.09765625 C2.84234375 48.09765625 0.53234375 48.09765625 -1.84765625 48.09765625 C-3.42065953 46.52465297 -2.97491129 44.9608158 -2.97705078 42.77734375 C-2.98020294 41.85969238 -2.9833551 40.94204102 -2.98660278 39.99658203 C-2.98457855 38.99868652 -2.98255432 38.00079102 -2.98046875 36.97265625 C-2.98142548 35.9554248 -2.9823822 34.93819336 -2.98336792 33.89013672 C-2.98404986 31.73469989 -2.9821946 29.57926103 -2.97802734 27.42382812 C-2.9726793 24.11193254 -2.97797188 20.80017258 -2.984375 17.48828125 C-2.98371422 15.39973928 -2.98243306 13.3111974 -2.98046875 11.22265625 C-2.98249298 10.22476074 -2.98451721 9.22686523 -2.98660278 8.19873047 C-2.98345062 7.2810791 -2.98029846 6.36342773 -2.97705078 5.41796875 C-2.97625519 4.60602051 -2.97545959 3.79407227 -2.97463989 2.95751953 C-2.80251503 0.43649628 -2.52701988 0.13356342 0 0 Z " fill="#010101" transform="translate(205.84765625,19.90234375)"/>
<path d="M0 0 C2.1640625 -0.29296875 2.1640625 -0.29296875 4.625 -0.1875 C5.44226563 -0.16042969 6.25953125 -0.13335938 7.1015625 -0.10546875 C8.04128906 -0.05326172 8.04128906 -0.05326172 9 0 C11.2581906 3.74214442 11.81591162 7.74030903 12.5078125 11.984375 C12.63815887 12.75879944 12.76850525 13.53322388 12.90280151 14.33111572 C13.1765104 15.96793478 13.44695605 17.60530243 13.71435547 19.24316406 C14.12154827 21.72892844 14.54243059 24.21209486 14.96484375 26.6953125 C15.22999802 28.29152879 15.49434668 29.88787915 15.7578125 31.484375 C15.94526535 32.58480133 15.94526535 32.58480133 16.13650513 33.7074585 C16.9116059 38.53001779 17.10936455 43.11505001 17 48 C14.36 48 11.72 48 9 48 C8.34 45.03 7.68 42.06 7 39 C5.35 38.67 3.7 38.34 2 38 C1.86722656 38.63808594 1.73445313 39.27617188 1.59765625 39.93359375 C1.42105469 40.75988281 1.24445313 41.58617187 1.0625 42.4375 C0.88847656 43.26121094 0.71445312 44.08492187 0.53515625 44.93359375 C0 47 0 47 -1 48 C-3.67058851 48.14115161 -6.32432238 48.04247107 -9 48 C-8.29843222 39.39929864 -6.92719497 30.95521402 -5.47094727 22.45678711 C-5.05946274 20.04469582 -4.65946526 17.6308655 -4.25976562 15.21679688 C-3.99809227 13.67696482 -3.73574697 12.13724677 -3.47265625 10.59765625 C-3.3548732 9.87892838 -3.23709015 9.1602005 -3.11573792 8.41969299 C-2.51862528 5.00197324 -1.9558989 2.93384836 0 0 Z " fill="#040404" transform="translate(315,20)"/>
<path d="M0 0 C3 0.125 3 0.125 4 1.125 C4.16017166 3.93476518 4.25950534 6.72273596 4.31640625 9.53515625 C4.33718735 10.37719101 4.35796844 11.21922577 4.37937927 12.08677673 C4.44496812 14.78693179 4.50380276 17.48718717 4.5625 20.1875 C4.60567637 22.01368241 4.64929036 23.83985454 4.69335938 25.66601562 C4.80065894 30.15223992 4.90189966 34.6385655 5 39.125 C6.65 39.125 8.3 39.125 10 39.125 C10.33 26.585 10.66 14.045 11 1.125 C14.465 0.63 14.465 0.63 18 0.125 C20.9671129 3.0921129 19.32377307 14.17138057 19.35009766 18.38793945 C19.36662404 20.32881692 19.39387012 22.26963436 19.43212891 24.21020508 C19.48703898 27.00894746 19.50879648 29.80625939 19.5234375 32.60546875 C19.54610687 33.46818893 19.56877625 34.33090912 19.59213257 35.21977234 C19.5773591 39.45566096 19.33739589 42.27110377 16.65478516 45.6574707 C13.52575864 48.56579064 11.89939339 49.04015157 7.6875 49.4375 C3.2979742 49.06550629 1.35223657 47.93152364 -2 45.125 C-3.705738 42.33769012 -4.24954613 40.26376914 -4.24291992 37.01489258 C-4.24753487 35.81894218 -4.24753487 35.81894218 -4.25224304 34.59883118 C-4.24505753 33.7476622 -4.23787201 32.89649323 -4.23046875 32.01953125 C-4.23001053 31.13972092 -4.22955231 30.25991058 -4.2290802 29.35343933 C-4.22606426 27.49838915 -4.21819767 25.64334135 -4.20581055 23.78833008 C-4.18750046 20.93757239 -4.18530131 18.0871386 -4.18554688 15.23632812 C-4.18063353 13.434893 -4.17480602 11.6334601 -4.16796875 9.83203125 C-4.16685593 8.97478958 -4.1657431 8.11754791 -4.16459656 7.23432922 C-4.10739982 0.17114166 -4.10739982 0.17114166 0 0 Z " fill="#030303" transform="translate(177,19.875)"/>
<path d="M0 0 C5.75 -0.125 5.75 -0.125 8 1 C8.59423828 3.68383789 8.59423828 3.68383789 9.0703125 7.22265625 C9.24433594 8.48271484 9.41835938 9.74277344 9.59765625 11.04101562 C9.77363277 12.3814848 9.94941144 13.72197995 10.125 15.0625 C10.30776209 16.40701435 10.49134531 17.75141736 10.67578125 19.09570312 C11.12530114 22.39612549 11.56631162 25.69746617 12 29 C12.66 29 13.32 29 14 29 C14.03738281 28.319375 14.07476562 27.63875 14.11328125 26.9375 C14.54015315 20.64323195 15.3422341 14.50769764 16.5 8.3125 C16.63059814 7.60544922 16.76119629 6.89839844 16.89575195 6.16992188 C17.87005746 1.12994254 17.87005746 1.12994254 19 0 C22 -0.125 22 -0.125 25 0 C26 1 26 1 26.15600586 4.00463867 C25.98303405 8.43450364 25.33022702 12.57983617 24.50390625 16.92578125 C24.27440529 18.16898384 24.27440529 18.16898384 24.04026794 19.43730164 C23.71787504 21.17660719 23.39247415 22.91535763 23.06420898 24.65356445 C22.56099274 27.3204881 22.06784957 29.98913061 21.57617188 32.65820312 C21.26100302 34.35167173 20.9452679 36.04503507 20.62890625 37.73828125 C20.48095108 38.53720291 20.33299591 39.33612457 20.18055725 40.15925598 C19.11616262 45.76767475 19.11616262 45.76767475 18 48 C14.7 48 11.4 48 8 48 C6.47130836 44.94261671 5.69889481 43.22489224 5.11450195 40.04516602 C4.97128006 39.28079727 4.82805817 38.51642853 4.68049622 37.72889709 C4.53456528 36.91215012 4.38863434 36.09540314 4.23828125 35.25390625 C4.00591011 33.98171486 4.00591011 33.98171486 3.7688446 32.68382263 C3.44389151 30.89322001 3.12217094 29.10202814 2.8034668 27.31030273 C2.31452314 24.57382292 1.80924284 21.84069799 1.30273438 19.10742188 C0.98858456 17.36476309 0.67540115 15.62192975 0.36328125 13.87890625 C0.21127762 13.0641835 0.05927399 12.24946075 -0.09733582 11.41004944 C-0.81038957 7.31868037 -1.22431355 4.06929747 0 0 Z " fill="#030303" transform="translate(339,20)"/>
<path d="M0 0 C2.79866293 2.33221911 3.91654794 4.506279 5.25 7.875 C5.25 8.865 5.25 9.855 5.25 10.875 C2.54120665 12.22939668 0.24066732 11.94001451 -2.75 11.875 C-3.41 10.555 -4.07 9.235 -4.75 7.875 C-6.07 7.875 -7.39 7.875 -8.75 7.875 C-8.94622241 12.09378192 -8.55230168 15.04510894 -6.75 18.875 C-5.1 18.875 -3.45 18.875 -1.75 18.875 C-1.5025 19.596875 -1.255 20.31875 -1 21.0625 C0.36136803 24.12557808 2.13983277 26.28834339 4.25 28.875 C5.86386527 33.71659581 6.08616487 38.08321813 3.9375 42.6875 C0.04123827 47.73820966 0.04123827 47.73820966 -3.0546875 48.2734375 C-11.97537598 48.19209384 -11.97537598 48.19209384 -15.75 44.875 C-18.65547505 41.16801459 -19.07494469 38.53254061 -18.75 33.875 C-16.11 33.875 -13.47 33.875 -10.75 33.875 C-10.09 35.525 -9.43 37.175 -8.75 38.875 C-6.275 38.38 -6.275 38.38 -3.75 37.875 C-4.17006712 33.77134501 -4.17006712 33.77134501 -5.9375 30.125 C-8.38374523 28.43793432 -10.91066921 27.69525112 -13.75 26.875 C-13.8325 26.215 -13.915 25.555 -14 24.875 C-14.68458698 22.13665207 -15.49699139 20.47163919 -16.875 18.0625 C-18.75784615 14.40026079 -19.20773326 11.81580685 -18.43359375 7.76953125 C-17.20880499 4.37511668 -15.32921629 2.39280637 -12.75 -0.125 C-8.25730856 -1.62256381 -4.42489392 -1.81018388 0 0 Z " fill="#040404" transform="translate(132.75,20.125)"/>
<path d="M0 0 C1.26166992 0.00580078 1.26166992 0.00580078 2.54882812 0.01171875 C3.38607422 0.00785156 4.22332031 0.00398438 5.0859375 0 C5.88708984 0.00128906 6.68824219 0.00257812 7.51367188 0.00390625 C8.25093506 0.00503418 8.98819824 0.00616211 9.74780273 0.00732422 C11.61132812 0.13671875 11.61132812 0.13671875 13.61132812 1.13671875 C13.61132812 3.44671875 13.61132812 5.75671875 13.61132812 8.13671875 C7.67132813 8.63171875 7.67132813 8.63171875 1.61132812 9.13671875 C1.28132813 12.76671875 0.95132812 16.39671875 0.61132812 20.13671875 C2.80789063 20.10578125 2.80789063 20.10578125 5.04882812 20.07421875 C6.56965331 20.05279868 8.09204775 20.06491911 9.61132812 20.13671875 C9.94132812 20.46671875 10.27132813 20.79671875 10.61132812 21.13671875 C10.32402757 23.47616611 9.99196033 25.81063305 9.61132812 28.13671875 C6.64132812 28.46671875 3.67132813 28.79671875 0.61132812 29.13671875 C0.94132812 32.43671875 1.27132813 35.73671875 1.61132812 39.13671875 C5.57132812 39.46671875 9.53132813 39.79671875 13.61132812 40.13671875 C13.61132812 42.77671875 13.61132812 45.41671875 13.61132812 48.13671875 C6.68132812 48.13671875 -0.24867188 48.13671875 -7.38867188 48.13671875 C-7.41157591 41.46146471 -7.43150451 34.78634595 -7.44360352 28.11108398 C-7.44864513 25.83829284 -7.45547825 23.56550495 -7.46411133 21.29272461 C-7.47618448 18.03368324 -7.48190175 14.77468458 -7.48632812 11.515625 C-7.49148941 10.49271866 -7.4966507 9.46981232 -7.50196838 8.41590881 C-7.50204391 7.475009 -7.50211945 6.53410919 -7.50219727 5.56469727 C-7.50441788 4.73196793 -7.50663849 3.89923859 -7.50892639 3.04127502 C-7.23223766 -1.34084117 -3.56122003 0.00573927 0 0 Z " fill="#020202" transform="translate(378.388671875,19.86328125)"/>
<path d="M0 0 C1.65 0.33 3.3 0.66 5 1 C5 10.9 5 20.8 5 31 C3.35 31.33 1.7 31.66 0 32 C-2.33908019 28.49137972 -2.25713602 27.02069033 -2.265625 22.87109375 C-2.26820313 21.67162109 -2.27078125 20.47214844 -2.2734375 19.23632812 C-2.26570312 17.98271484 -2.25796875 16.72910156 -2.25 15.4375 C-2.25773438 14.18001953 -2.26546875 12.92253906 -2.2734375 11.62695312 C-2.27085937 10.42876953 -2.26828125 9.23058594 -2.265625 7.99609375 C-2.26336914 6.89450928 -2.26111328 5.7929248 -2.25878906 4.65795898 C-2 2 -2 2 0 0 Z " fill="#FBFBFB" transform="translate(153,28)"/>
<path d="M0 0 C2.625 0.9375 2.625 0.9375 5 2 C5.04939662 5.95096978 5.08571755 9.9018203 5.10986328 13.85302734 C5.12488107 15.8591136 5.15028981 17.86511324 5.17578125 19.87109375 C5.18222656 21.12792969 5.18867188 22.38476562 5.1953125 23.6796875 C5.20578613 24.84226074 5.21625977 26.00483398 5.22705078 27.20263672 C5 30 5 30 3 32 C1.35 31.67 -0.3 31.34 -2 31 C-2 21.1 -2 11.2 -2 1 C-1.34 0.67 -0.68 0.34 0 0 Z " fill="#FDFDFD" transform="translate(245,28)"/>
<path d="M0 0 C1.98 0.495 1.98 0.495 4 1 C4 9.91 4 18.82 4 28 C2.68 28.33 1.36 28.66 0 29 C-1.80279191 27.19720809 -1.13036605 24.45952299 -1.1328125 22.03125 C-1.13410156 20.82082031 -1.13539062 19.61039063 -1.13671875 18.36328125 C-1.13285156 17.08839844 -1.12898438 15.81351563 -1.125 14.5 C-1.12886719 13.22511719 -1.13273437 11.95023438 -1.13671875 10.63671875 C-1.13542969 9.42628906 -1.13414063 8.21585938 -1.1328125 6.96875 C-1.13168457 5.84919922 -1.13055664 4.72964844 -1.12939453 3.57617188 C-1 1 -1 1 0 0 Z " fill="#FEFEFE" transform="translate(48,29)"/>
<path d="M0 0 C1.32 0.66 2.64 1.32 4 2 C4 7.28 4 12.56 4 18 C2.68 18.33 1.36 18.66 0 19 C-2 17 -2 17 -2.265625 13.84765625 C-2.26046875 12.59855469 -2.2553125 11.34945312 -2.25 10.0625 C-2.25515625 8.81597656 -2.2603125 7.56945313 -2.265625 6.28515625 C-2 3 -2 3 0 0 Z " fill="#EFEFEF" transform="translate(59,34)"/>
<path d="M0 0 C1.32 0.66 2.64 1.32 4 2 C4 6.95 4 11.9 4 17 C2.02 17.99 2.02 17.99 0 19 C-2.49210439 16.50789561 -2.26015661 14.99639212 -2.2734375 11.58984375 C-2.26570313 10.90019531 -2.25796875 10.21054687 -2.25 9.5 C-2.25773437 8.81035156 -2.26546875 8.12070312 -2.2734375 7.41015625 C-2.25333293 2.25333293 -2.25333293 2.25333293 0 0 Z " fill="#F2F2F2" transform="translate(38,34)"/>
<path d="M0 0 C1.32 0.66 2.64 1.32 4 2 C4.125 5.375 4.125 5.375 4 9 C3.34 9.66 2.68 10.32 2 11 C-0.125 10.625 -0.125 10.625 -2 10 C-2.1953125 3.9453125 -2.1953125 3.9453125 -2 2 C-1.34 1.34 -0.68 0.68 0 0 Z " fill="#F4F4F4" transform="translate(70,38)"/>
<path d="M0 0 C0.99 0.33 1.98 0.66 3 1 C3 3.97 3 6.94 3 10 C1.68 10.33 0.36 10.66 -1 11 C-2 10 -2 10 -2.09765625 7.93359375 C-2.08605469 7.10988281 -2.07445313 6.28617188 -2.0625 5.4375 C-2.05347656 4.61121094 -2.04445313 3.78492188 -2.03515625 2.93359375 C-2.02355469 2.29550781 -2.01195313 1.65742187 -2 1 C-1.34 0.67 -0.68 0.34 0 0 Z " fill="#FDFDFD" transform="translate(28,38)"/>
<path d="M0 0 C0.66 0.33 1.32 0.66 2 1 C2.40729228 3.32156597 2.74438677 5.6568787 3 8 C1.68 8.33 0.36 8.66 -1 9 C-2.25541557 5.23375329 -1.37061958 3.62811066 0 0 Z " fill="#EDEDED" transform="translate(319,41)"/>
</svg>
